<svg xmlns="http://www.w3.org/2000/svg" width="50.815" height="19" viewBox="0 0 50.815 19"><defs><style>.a,.b{fill:#fff;}.b{font-size:14px;font-family:OpenSansHebrew-Regular, Open Sans Hebrew;}</style></defs><g transform="translate(-26.176 -34.5)"><g transform="translate(26.176 5.658)"><g transform="translate(0 31.842)"><path class="a" d="M14.819,37.5a1.126,1.126,0,0,0-.2-.014H3.5l.243-.113a2.256,2.256,0,0,0,.637-.451L7.5,33.8A1.168,1.168,0,0,0,7.663,32.3a1.128,1.128,0,0,0-1.692-.147L.331,37.8a1.128,1.128,0,0,0,0,1.6h0l5.641,5.641a1.128,1.128,0,0,0,1.692-.113A1.168,1.168,0,0,0,7.5,43.427L4.386,40.3a2.256,2.256,0,0,0-.564-.412l-.338-.152H14.562a1.168,1.168,0,0,0,1.19-.948A1.128,1.128,0,0,0,14.819,37.5Z" transform="translate(0 -31.842)"/></g></g><text class="b" transform="translate(76.991 49.5)"><tspan x="-30.386" y="0">יציאה</tspan></text></g></svg>