<svg xmlns="http://www.w3.org/2000/svg" xmlns:xlink="http://www.w3.org/1999/xlink" width="94.368" height="94.368" viewBox="0 0 94.368 94.368"><defs><style>.a{fill:#00b819;}.b{fill:#fff;}.c{filter:url(#a);}</style><filter id="a" x="0" y="0" width="94.368" height="94.368" filterUnits="userSpaceOnUse"><feOffset input="SourceAlpha"/><feGaussianBlur stdDeviation="3" result="b"/><feFlood flood-opacity="0.161"/><feComposite operator="in" in2="b"/><feComposite in="SourceGraphic"/></filter></defs><g transform="translate(-244.144 453.063) rotate(-135)"><g class="c" transform="matrix(-0.71, 0.71, -0.71, -0.71, 147.73, 493)"><circle class="a" cx="27" cy="27" r="27" transform="translate(47.18 85.37) rotate(-135)"/></g><g transform="translate(102.566 493.129) rotate(135)"><g transform="translate(22.204 18.542)"><g transform="translate(0 0)"><path class="b" d="M8.483,4.7,4.569.784a2.837,2.837,0,0,0-3.916,0L0,1.437l7.831,7.83.653-.653A2.766,2.766,0,0,0,8.483,4.7Z"/></g></g><g transform="translate(0 2.796)"><g transform="translate(0)"><path class="b" d="M20.863,18.452a2.076,2.076,0,0,1-2.752-.142l-7.741-7.746a2.077,2.077,0,0,1-.142-2.752L2.416,0A9.964,9.964,0,0,0,2.9,13.53L15.146,25.785a9.907,9.907,0,0,0,13.531.48Z"/></g></g><g transform="translate(3.667 0)"><g transform="translate(0 0)"><path class="b" d="M8.483,4.7,4.569.784a2.836,2.836,0,0,0-3.916,0L0,1.437l7.831,7.83.653-.653A2.766,2.766,0,0,0,8.483,4.7Z"/></g></g></g></g></svg>