<svg xmlns="http://www.w3.org/2000/svg" width="137.11" height="132.43" viewBox="0 0 137.11 132.43"><defs><style>.a{fill:#f8f8f8;}.b{fill:#d2d1d0;}.c{fill:#a9a9a9;}</style></defs><g transform="translate(-168.439 -265.297)"><path class="a" d="M368.478,353.8q0,2.3,0,4.6c-.661,16.977-6.818,31.691-18.195,44.333a41.109,41.109,0,0,0-3.2-4.388,39.311,39.311,0,0,0-13.924-10.384c-2.779-1.279-5.673-2.236-8.487-3.405a43.76,43.76,0,0,1-19.442-15.891,33.287,33.287,0,0,1-2.811-4.777,7.135,7.135,0,0,1,5.059-10.349c.083-.019.165-.034.3-.063a12.732,12.732,0,0,1-1.425-1.019,7.011,7.011,0,0,1-1.791-8.18,45.962,45.962,0,0,1,13.557-17.189,28.1,28.1,0,0,1,5.585-3.327c.121-.054.241-.112.456-.212a21.671,21.671,0,0,0-2.768-.429,44.924,44.924,0,0,0-8.441-.214c-.727.056-1.451.149-2.176.228a7.149,7.149,0,0,1-1.657-14.2,53.653,53.653,0,0,1,11.385-.246c1.746.12,3.473.393,5.213.56.113.031.224.071.339.093,1.64.3,3.278.61,4.9,1.014a54.877,54.877,0,0,1,11.32,4.141c1.335.667,2.635,1.393,3.91,2.166a45.708,45.708,0,0,1,6.338,4.631c.763.666,1.518,1.342,2.277,2.014.23.248.45.506.691.743a44.542,44.542,0,0,1,3.843,4.393,55.081,55.081,0,0,1,6.053,9.917c.075.155.054.385.285.446a2.618,2.618,0,0,0,.151.532,21.825,21.825,0,0,1,2.114,7.783C368.207,349.344,368.421,351.567,368.478,353.8Zm-56.365.413c.387.263.7.461,1,.682a8.833,8.833,0,0,1,2.406,3.168,29.381,29.381,0,0,0,10.712,11.277,14.11,14.11,0,0,0,8.489,2.331,11.727,11.727,0,0,0,10.7-8.475,23,23,0,0,0,.828-7.859,15.4,15.4,0,0,0-.335-3.288,20,20,0,0,0-3.882-7.656,13.463,13.463,0,0,0-20.376-.612,23.819,23.819,0,0,0-3.983,6.241,7.258,7.258,0,0,1-3.492,3.56A8.646,8.646,0,0,1,312.113,354.217Z" transform="translate(-94.93 -24.832)"/><path class="b" d="M373.636,298.479c-.759-.672-1.514-1.348-2.277-2.014a45.708,45.708,0,0,0-6.338-4.631c-1.275-.774-2.575-1.5-3.91-2.166a54.878,54.878,0,0,0-11.32-4.141c-1.621-.4-3.26-.71-4.9-1.014-.115-.021-.226-.062-.339-.093a61.333,61.333,0,0,0-7.02-6.04,7.158,7.158,0,1,1,8.078-11.819,70,70,0,0,1,8.014,6.677q3.706,3.5,7.061,7.338l.494.564a1.268,1.268,0,0,1,.266.229,20.058,20.058,0,0,0,1.524,1.9c1.5,1.789,2.927,3.633,4.318,5.5,1.879,2.528,3.622,5.151,5.3,7.813A7.426,7.426,0,0,1,373.636,298.479Z" transform="translate(-113.76)"/><path class="c" d="M409.2,306.378a7.427,7.427,0,0,0-1.045-1.9c-1.682-2.662-3.425-5.285-5.3-7.813-1.391-1.871-2.819-3.715-4.318-5.5a20.061,20.061,0,0,1-1.524-1.9,1.269,1.269,0,0,0-.266-.229.963.963,0,0,0-.1-.591,7.149,7.149,0,0,1,13.38-5.01,161.934,161.934,0,0,1,8.5,25.637,51.878,51.878,0,0,1,1.574,12.293c0,.169-.014.339-.02.508-.231-.06-.21-.29-.285-.446a55.078,55.078,0,0,0-6.053-9.917,44.542,44.542,0,0,0-3.843-4.393C409.652,306.884,409.432,306.627,409.2,306.378Z" transform="translate(-149.326 -7.9)"/></g></svg>